<svg width="32" height="32" viewBox="0 0 32 32" fill="none"
                                xmlns="http://www.w3.org/2000/svg">
                                <path
                                    d="M27.3602 11.4504C28.0506 11.4504 28.6102 10.8908 28.6102 10.2004C28.6102 9.51008 28.0506 8.95044 27.3602 8.95044V11.4504ZM8.80151 8.95044C8.11116 8.95044 7.55151 9.51008 7.55151 10.2004C7.55151 10.8908 8.11116 11.4504 8.80151 11.4504V8.95044ZM27.3602 8.95044H8.80151V11.4504H27.3602V8.95044Z"
                                    fill="#236E57" />
                                <path
                                    d="M18.0809 17.25C18.7713 17.25 19.3309 16.6904 19.3309 16C19.3309 15.3096 18.7713 14.75 18.0809 14.75L18.0809 17.25ZM4.16187 14.75C3.47151 14.75 2.91187 15.3096 2.91187 16C2.91187 16.6904 3.47151 17.25 4.16187 17.25L4.16187 14.75ZM18.0809 14.75L4.16187 14.75L4.16187 17.25L18.0809 17.25L18.0809 14.75Z"
                                    fill="#236E57" />
                                <path
                                    d="M27.3603 17.25C28.0506 17.25 28.6103 16.6904 28.6103 16C28.6103 15.3096 28.0506 14.75 27.3603 14.75V17.25ZM22.7206 14.75C22.0302 14.75 21.4706 15.3096 21.4706 16C21.4706 16.6904 22.0302 17.25 22.7206 17.25V14.75ZM27.3603 14.75H22.7206V17.25H27.3603V14.75Z"
                                    fill="#F05830" />
                                <path
                                    d="M27.3602 23.0496C28.0506 23.0496 28.6102 22.4899 28.6102 21.7996C28.6102 21.1092 28.0506 20.5496 27.3602 20.5496V23.0496ZM8.80151 20.5496C8.11116 20.5496 7.55151 21.1092 7.55151 21.7996C7.55151 22.4899 8.11116 23.0496 8.80151 23.0496V20.5496ZM27.3602 20.5496H8.80151V23.0496H27.3602V20.5496Z"
                                    fill="#236E57" />
                            </svg>